<svg width="14" height="10" viewBox="0 0 14 10" fill="none" xmlns="http://www.w3.org/2000/svg">
<path d="M5.31249 9.50039C5.23861 9.50049 5.16545 9.48599 5.0972 9.45772C5.02894 9.42945 4.96695 9.38797 4.91478 9.33566L0.977283 5.39847C0.925047 5.34624 0.883609 5.28424 0.855335 5.216C0.827062 5.14776 0.812506 5.07461 0.8125 5.00075C0.812494 4.92688 0.827037 4.85373 0.855298 4.78549C0.88356 4.71724 0.924987 4.65523 0.977215 4.60299C1.02944 4.55076 1.09145 4.50932 1.15969 4.48104C1.22793 4.45277 1.30107 4.43822 1.37494 4.43821C1.44881 4.4382 1.52195 4.45275 1.5902 4.48101C1.65845 4.50927 1.72046 4.5507 1.77269 4.60292L5.31249 8.14241L12.7897 0.665458C12.8952 0.56009 13.0383 0.500928 13.1874 0.500977C13.3365 0.501025 13.4795 0.560279 13.5849 0.665716C13.6904 0.771152 13.7496 0.914143 13.7497 1.06326C13.7498 1.21237 13.6906 1.35541 13.5853 1.46094L5.71026 9.33566C5.65807 9.38796 5.59607 9.42943 5.52781 9.4577C5.45954 9.48597 5.38637 9.50047 5.31249 9.50039Z" fill="#EE735A"/>
</svg>
