<svg width="70" height="64" viewBox="0 0 70 64" fill="none" xmlns="http://www.w3.org/2000/svg">
<path d="M36.6034 64C54.3272 64 68.6951 49.6731 68.6951 32C68.6951 14.3269 54.3272 0 36.6034 0C18.8797 0 4.51172 14.3269 4.51172 32C4.51172 49.6731 18.8797 64 36.6034 64Z" fill="#E6ECEC"/>
<path d="M42.708 53.082L34.5107 62.8018L28.5606 61.9219L26.1445 60.8901L27.2208 55.2388L42.708 53.082Z" fill="white"/>
<path d="M0.671875 45.5898C1.15254 43.0902 2.24337 40.7474 3.84794 38.7681C6.242 36.0271 9.17838 33.8089 12.4727 32.2529C15.0962 31.1201 17.8074 30.201 20.5798 29.5049C21.163 29.4025 21.7344 29.2414 22.2849 29.0239C22.2849 29.0239 23.2998 24.9512 23.6016 24.2632C23.9035 23.5752 24.6535 21.6289 24.6535 21.6289C24.6535 21.6289 32.6582 21.9142 35.021 22.0522C37.3837 22.1902 40.978 22.5918 40.978 22.5918C40.978 22.5918 40.9732 26.3282 40.7566 28.4922C40.54 30.6562 39.8679 35.0112 37.6927 37.5332C35.5175 40.0552 34.1658 41.665 30.372 42.353C27.6889 42.7451 24.963 42.7451 22.28 42.353C22.28 42.353 21.9519 41.515 21.2208 41.478C18.0492 41.1489 14.8444 41.3793 11.7529 42.1582C7.99825 43.0962 4.29865 44.2416 0.671875 45.5898Z" fill="white"/>
<path d="M30.0841 36C33.1304 36 35.5999 33.5376 35.5999 30.5C35.5999 27.4624 33.1304 25 30.0841 25C27.0378 25 24.5684 27.4624 24.5684 30.5C24.5684 33.5376 27.0378 36 30.0841 36Z" fill="#656565" fill-opacity="0.2"/>
<path opacity="0.25" d="M1.9043 45.1212C4.43214 43.3275 7.21514 41.9216 10.1608 40.9503C15.0959 39.3113 21.0441 38.8419 24.1299 40.1329C27.2157 41.4239 28.2796 42.2718 31.6372 41.7188C34.9948 41.1658 29.7321 42.4691 26.168 42.5831C22.6038 42.6971 21.9234 41.3961 20.9426 41.3961C17.5656 41.1711 14.1742 41.4777 10.8929 42.3043C7.84615 43.0749 4.84532 44.0153 1.9043 45.1212V45.1212Z" fill="#656565"/>
<path d="M23.6148 42.7148C27.5742 42.9458 30.4627 42.8218 33.4843 41.2778C36.3477 39.6825 38.5534 37.1296 39.7121 34.0698C40.4879 31.444 40.9234 28.7303 41.0078 25.9941C41.1081 23.7701 41.0078 22.3242 41.0078 22.3242L46.4584 23.1392C46.4584 23.1392 46.3267 30.6729 46.0569 33.0459C45.7871 35.4189 45.2095 39.9632 41.878 43.7632C39.4357 46.4849 36.1236 48.2787 32.5045 48.8398C30.4867 49.2398 27.4328 49.5128 25.7028 48.8398C25.1155 48.6556 24.5992 48.2954 24.2245 47.8081C23.8498 47.3209 23.635 46.7306 23.609 46.1172C23.629 45.9551 23.6039 45.7905 23.5365 45.6416C23.4691 45.4928 23.3622 45.3652 23.227 45.273C23.227 45.273 22.0987 44.4031 22.1458 43.5591C22.1789 43.1628 22.1789 42.7645 22.1458 42.3682L23.6148 42.7148Z" fill="#FDAD9A"/>
<path d="M22.1167 29.0825C22.1167 29.0825 23.2608 24.6523 23.6058 23.7583C23.9508 22.8643 24.3589 21.7207 24.3589 21.7207C24.3589 21.7207 16.8736 21.9277 14.4948 22.2207C12.7951 22.3605 11.1155 22.6846 9.48633 23.1875C9.3339 23.3875 9.06523 24.5485 11.091 25.7065C13.5999 26.9011 16.2196 27.8487 18.9132 28.5356C19.9705 28.7741 21.04 28.9565 22.1167 29.0825V29.0825Z" fill="#656565"/>
<path d="M50.8359 31.75C50.8359 31.75 51.6305 27.4109 51.9113 26.3379L52.5371 23.9551C52.5371 23.9551 61.5459 25.5079 63.9628 26.1069C66.3797 26.7059 69.2115 27.7949 69.3468 28.1069C69.4822 28.4189 68.4244 29.7918 66.3515 30.3838C62.7324 31.0478 59.0778 31.5032 55.4061 31.7471C53.618 31.8791 50.8359 31.75 50.8359 31.75Z" fill="#656565"/>
<path d="M21.625 58.793L24.6757 55.9229L24.0989 53.9502L27.841 51.375L26.3764 61.375C26.3764 61.375 23.7459 60.096 22.9075 59.708C22.4229 59.4916 21.9869 59.1804 21.625 58.793Z" fill="#656565"/>
<path d="M34.998 62.3818C34.998 62.3818 41.4425 55.0552 43.2707 52.7402C45.0989 50.4252 50.8226 40.7402 50.8226 40.7402L51.8876 44.561L61.122 51.1558C55.5997 57.6937 47.7652 61.8616 39.2441 62.7949C37.8156 62.9829 36.3631 62.8415 34.998 62.3818V62.3818Z" fill="#656565"/>
<path d="M9.38672 23.182C9.75577 21.662 10.87 20.5339 13.7321 19.7519C16.9864 19.112 20.2787 18.6817 23.5884 18.4638C23.6526 17.4981 23.447 16.534 22.994 15.6781C22.1354 14.6992 21.361 13.6496 20.6792 12.5409C20.6532 12.1949 20.2872 11.3089 21.9309 10.5409C23.5746 9.77292 27.2732 8.64594 35.1126 9.01894C42.952 9.39194 49.276 10.1937 53.5843 11.4647C57.8926 12.7357 59.0998 14.2738 59.1329 14.8378C59.1659 15.4018 58.7086 16.3188 57.6095 17.6928C56.5103 19.0668 55.7405 19.9931 55.7325 20.3671C55.7245 20.7411 55.7325 21.0341 55.7325 21.0341C55.7325 21.0341 64.0329 22.714 66.6504 24.37C69.2679 26.026 69.52 27.0357 69.52 27.5897V28.2811C67.7639 27.2313 65.8383 26.493 63.8294 26.099C59.8179 25.125 50.2535 23.5821 46.9099 23.1581C40.7458 22.3449 34.5394 21.8934 28.3222 21.8061C21.0925 21.8111 16.9806 21.8749 14.0382 22.2689C12.4674 22.4589 10.9126 22.7642 9.38672 23.182V23.182Z" fill="#E66950"/>
<path d="M27.3359 61.499L28.7061 59.4458L27.8315 58.3979L29.778 57.3828L31.817 59.1538L29.6727 59.915L30.6418 62.3838L27.3359 61.499Z" fill="#E66950"/>
<path d="M27.9999 49.2939C28.0299 49.8699 28.0299 50.447 27.9999 51.0229C27.9418 51.4499 27.3359 55.7769 27.3359 55.7769L29.5806 57.6768C29.5806 57.6768 34.4818 57.2772 36.5116 56.2402C38.339 55.4745 40.0966 54.5527 41.7653 53.4858C43.2927 52.3318 46.6562 47.7908 46.9089 47.4028C47.1617 47.0148 50.8935 40.7031 50.8935 40.7031C50.4012 38.3558 50.2574 35.9491 50.4665 33.5601C50.9687 30.2964 51.6382 27.0607 52.4722 23.8652L46.101 22.998C46.101 22.998 46.7547 25.4982 46.2322 31.4482C45.7097 37.3982 44.5503 41.39 40.4094 44.978C37.9004 47.3412 34.6624 48.7866 31.2235 49.0781C30.1575 49.2443 29.0786 49.3164 27.9999 49.2939V49.2939Z" fill="#E66950"/>
<path opacity="0.35" d="M39.5345 45.6992C39.5345 45.6992 34.9324 51.799 31.7373 53.481C28.5422 55.163 27.4589 54.11 27.7949 52.397C27.999 51.3305 28.087 50.2454 28.0569 49.1602C30.3068 49.3134 32.5666 49.0813 34.738 48.4741C36.4805 47.8213 38.1013 46.8836 39.5345 45.6992V45.6992Z" fill="#656565"/>
<path d="M30.0846 35.5C32.854 35.5 35.099 33.2614 35.099 30.5C35.099 27.7386 32.854 25.5 30.0846 25.5C27.3153 25.5 25.0703 27.7386 25.0703 30.5C25.0703 33.2614 27.3153 35.5 30.0846 35.5Z" stroke="#231300"/>
<path d="M21.5602 58.9L24.5688 56L24.2679 54.5C24.2529 54.359 24.2884 54.2173 24.3682 54.1L27.8782 51.4C28.0287 50.6743 28.0287 49.9257 27.8782 49.2H27.3768C27.0009 49.191 26.6287 49.1235 26.2736 49C25.3526 48.7843 24.5364 48.2535 23.967 47.5C23.6031 46.8983 23.4284 46.2017 23.4656 45.5C22.953 45.2615 22.5562 44.8299 22.3625 44.3C22.1619 43.7167 22.1619 43.0833 22.3625 42.5C22.2622 42.4 22.2622 42.3 22.1619 42.2C22.064 41.9784 21.9283 41.7753 21.7607 41.6C18.721 41.1509 15.6232 41.2867 12.6347 42C9.21912 42.7403 5.86621 43.7433 2.60602 45C2.10458 45.2 1.70344 45.3 1.20201 45.5L0.5 45.8L0.700573 45.1C1.8098 41.0837 4.24848 37.5595 7.62034 35.1C11.0301 32.5 15.8438 30.5 22.1619 29.2C20.7579 28.9 19.3539 28.6 18.1504 28.3C12.6347 26.9 9.32521 25.2 9.4255 23.5V23.2C9.62607 20.9 13.2364 19.6 18.0501 19C19.755 18.8 21.5602 18.6 23.4656 18.5C23.8668 16.4 22.9642 15.5 22.1619 14.5C21.4906 13.8192 20.9771 13 20.6576 12.1V11.9C21.2593 9.9 26.5745 9 33.0931 9C37.2878 9.00473 41.4769 9.30548 45.6289 9.9C49.1162 10.3257 52.5464 11.1304 55.8582 12.3C57.8639 13.1 59.1676 14.2 59.0673 15.3V15.5C58.65 16.3419 58.1092 17.1171 57.4627 17.8C56.6344 18.7022 55.9876 19.7546 55.5573 20.9C57.7636 21.4 59.7693 21.9 61.5745 22.4C63.5897 22.9102 65.5166 23.7192 67.2908 24.8C68.7951 25.7 69.4971 26.7 69.4971 27.8C69.5121 27.941 69.4766 28.0827 69.3968 28.2V28.3C69.3968 28.3265 69.3863 28.352 69.3675 28.3707C69.3487 28.3895 69.3231 28.4 69.2966 28.4C68.6948 29.9 65.1848 30.9 59.9699 31.4C56.9376 31.7012 53.8909 31.8347 50.8438 31.8C50.8203 31.9685 50.7868 32.1354 50.7435 32.3C50.3406 34.9515 50.3406 37.6485 50.7435 40.3L51.8467 44L60.5716 50.7" stroke="#231300" stroke-miterlimit="10" stroke-linecap="round" stroke-linejoin="round"/>
<path fill-rule="evenodd" clip-rule="evenodd" d="M26.8164 59.1997L29.4529 57.5477C28.9524 57.1936 28.4926 56.7854 28.082 56.3307C27.8714 56.1567 27.6598 55.8957 27.4492 55.7227L26.8164 59.1997Z" stroke="#231300" stroke-miterlimit="10" stroke-linecap="round" stroke-linejoin="round"/>
<path fill-rule="evenodd" clip-rule="evenodd" d="M29.0703 58.6246L34.2581 62.5706H34.6493C36.313 60.8796 37.9768 59.1876 39.5432 57.4026C40.2282 56.6506 40.9131 55.8026 41.5991 55.0536L43.654 52.5176C42.969 53.0816 42.2841 53.7386 41.5981 54.2086C39.0071 56.1236 36.0381 57.4686 32.8872 58.1546C31.63 58.4155 30.3534 58.5727 29.0703 58.6246V58.6246Z" stroke="#231300" stroke-miterlimit="10" stroke-linecap="round" stroke-linejoin="round"/>
<path fill-rule="evenodd" clip-rule="evenodd" d="M35.8153 62.7002L48.8385 54.8002L48.6379 51.5002V51.1002H49.0391L53.4517 50.9002L50.8503 40.7422C50.6497 41.1422 49.9417 42.1002 49.7411 42.5002C48.8385 44.2002 46.92 47.3692 46.6322 47.9002C45.5291 49.7002 44.3256 51.4002 43.1222 53.0002C40.5879 56.2762 34.7031 62.7002 34.7031 62.7002H35.8153Z" stroke="#231300" stroke-miterlimit="10" stroke-linecap="round" stroke-linejoin="round"/>
<path opacity="0.25" d="M19.6668 21.8003C29.906 21.6333 35.4573 21.7166 43.3017 22.6006C47.0229 22.959 50.7224 23.5128 54.3851 24.2603C54.3851 24.2603 60.9257 26.3106 52.7804 26.9316C44.6351 27.5526 35.9402 23.1423 26.9806 23.6313C18.021 24.1203 15.6484 24.2583 15.6484 24.2583L19.6668 21.8003Z" fill="#656565"/>
<path d="M27.5371 54.1085C28.0175 54.7175 29.4085 55.8445 29.8126 56.2475C31.3336 56.1642 32.8397 55.9044 34.3004 55.4735C37.1167 54.7116 39.7828 53.4784 42.185 51.8265C44.6801 50.0025 45.6799 48.4855 47.815 45.8555" stroke="#231300" stroke-miterlimit="10" stroke-linecap="round" stroke-linejoin="round"/>
<path d="M9.42578 23.4004C11.3312 21.7004 27.9788 21.3004 40.4143 22.4004C48.4372 23.1004 67.7926 26.1004 69.1966 28.2004" stroke="#231300" stroke-miterlimit="10" stroke-linecap="round" stroke-linejoin="round"/>
<path fill-rule="evenodd" clip-rule="evenodd" d="M27.8969 32.3062C28.6992 32.3062 31.4731 32.0382 31.4731 30.7902V30.7012C31.4786 30.3442 31.3907 29.992 31.2182 29.6792C31.0457 29.3664 30.7945 29.1038 30.4893 28.9172C29.7642 28.4538 28.9344 28.1788 28.0754 28.1172C27.8969 28.1172 27.7174 28.2062 27.7174 28.3852C27.7174 28.5642 27.8067 28.7422 27.9852 28.7422C28.7483 28.8011 29.4852 29.046 30.1313 29.4552C30.3782 29.5937 30.5682 29.8147 30.6678 30.0792C30.4893 29.9902 30.3098 29.9902 30.1313 29.9012C29.3338 29.7386 28.5279 29.6194 27.7174 29.5442C27.1809 29.5442 27.1809 31.0602 28.3432 31.0602C28.969 31.0602 29.327 30.7922 29.327 30.4362C29.7743 30.5252 30.4893 30.6142 30.8473 30.7042C30.5796 31.3282 28.612 31.5042 27.9862 31.5042C27.8933 31.5105 27.8059 31.5501 27.74 31.6158C27.6742 31.6814 27.6345 31.7686 27.6281 31.8612C27.6281 32.1292 27.7174 32.3072 27.8959 32.3072L27.8969 32.3062Z" fill="#231300"/>
<path d="M29.418 33.7346C30.2756 33.8244 31.1342 33.5747 31.8091 33.0394C32.4839 32.5041 32.9209 31.726 33.0261 30.8726C33.1313 30.0192 32.8962 29.1587 32.3714 28.4764C31.8466 27.7941 31.0741 27.3446 30.2203 27.2246" stroke="#231300" stroke-width="0.75" stroke-miterlimit="10" stroke-linecap="round" stroke-linejoin="round"/>
<path fill-rule="evenodd" clip-rule="evenodd" d="M23.62 29.0546C24.1507 29.0851 24.6735 29.1964 25.1705 29.3846C25.2707 29.0846 25.6137 28.2396 25.714 28.0396C25.9146 27.7396 26.2806 27.2226 26.4812 26.9226C25.9557 26.6132 25.3779 26.4021 24.7763 26.2996C24.1859 26.1996 23.5827 26.1996 22.9922 26.2996C22.7917 26.7996 22.1899 29.1926 22.0897 29.1926C22.5939 29.0955 23.1066 29.0493 23.62 29.0546V29.0546Z" stroke="#231300" stroke-miterlimit="10" stroke-linecap="round" stroke-linejoin="round"/>
<path d="M22.5625 42.4C22.5625 42.4 30.9866 44.1 35.8003 39.6C38.4244 37.2357 40.0992 34.0023 40.5138 30.5C40.8247 27.8591 40.9276 25.198 40.8217 22.541" stroke="#231300" stroke-miterlimit="10" stroke-linecap="round" stroke-linejoin="round"/>
<path d="M0.5 45.7C4.02574 42.8732 8.03476 40.7051 12.3338 39.3C14.8039 38.5254 17.3678 38.0881 19.9556 38" stroke="#231300" stroke-width="0.75" stroke-miterlimit="10" stroke-linecap="round" stroke-linejoin="round"/>
<path d="M23.6151 45.4001C26.2456 46.2595 29.0967 46.1606 31.661 45.1211" stroke="#231300" stroke-width="0.75" stroke-miterlimit="10" stroke-linecap="round" stroke-linejoin="round"/>
<path d="M28.1797 50.9583C28.5457 51.2803 32.0437 51.4583 36.5827 49.8203C36.3952 49.9013 36.4884 49.8613 36.5827 49.8203" stroke="#231300" stroke-width="0.75" stroke-miterlimit="10" stroke-linecap="round" stroke-linejoin="round"/>
<path d="M27.9961 52.3125C28.7864 52.8235 30.6035 53.0425 33.898 52.3125" stroke="#231300" stroke-width="0.75" stroke-miterlimit="10" stroke-linecap="round" stroke-linejoin="round"/>
<path d="M43.1613 29.8685C43.7686 27.5575 43.8596 25.1418 43.4279 22.7919" stroke="#231300" stroke-width="0.75" stroke-miterlimit="10" stroke-linecap="round" stroke-linejoin="round"/>
<path d="M40.7789 16.4544C37.6867 16.0762 34.5741 15.8889 31.4587 15.8936C28.818 15.8139 26.1761 16.004 23.5742 16.4609" stroke="#231300" stroke-width="0.75" stroke-miterlimit="10" stroke-linecap="round" stroke-linejoin="round"/>
<path d="M22.1619 29.1008C22.7561 26.616 23.5269 24.1765 24.4685 21.8008" stroke="#231300" stroke-miterlimit="10" stroke-linecap="round" stroke-linejoin="round"/>
<path d="M50.7616 32.2408C51.1813 29.4656 51.7606 26.7167 52.4966 24.0078" stroke="#231300" stroke-miterlimit="10" stroke-linecap="round" stroke-linejoin="round"/>
<path d="M23.3653 18.5007C28.446 18.2682 33.536 18.335 38.6088 18.7007C46.4312 19.2007 55.2564 20.8007 55.2564 20.8007" stroke="#231300" stroke-miterlimit="10" stroke-linecap="round" stroke-linejoin="round"/>
<path d="M28.0781 49.1996C28.0781 49.1996 34.9979 49.6146 39.6111 45.7996C44.7257 41.5866 45.7286 37.2996 46.1297 32.5996C46.5308 27.5996 46.4306 23.0996 46.4306 23.0996" stroke="#231300" stroke-miterlimit="10" stroke-linecap="round" stroke-linejoin="round"/>
<path d="M45.0156 43.4783C48.2248 39.8073 48.0854 31.3443 48.2699 23.5273" stroke="#231300" stroke-width="0.75" stroke-miterlimit="10" stroke-linecap="round" stroke-linejoin="round"/>
<path fill-rule="evenodd" clip-rule="evenodd" d="M26.4929 61.0696L27.8839 51.3906L24.2305 54.2166L25.5252 60.6726L26.4929 61.0696Z" stroke="#231300" stroke-miterlimit="10" stroke-linecap="round" stroke-linejoin="round"/>
<path d="M61.9027 49.9141C59.0453 53.9492 55.2532 57.2368 50.8486 59.4975C46.444 61.7582 41.5572 62.9251 36.6034 62.8991C30.8397 62.8493 25.2001 61.2236 20.2988 58.1991" stroke="#231300" stroke-miterlimit="10" stroke-linecap="round" stroke-linejoin="round"/>
<path fill-rule="evenodd" clip-rule="evenodd" d="M30.6017 62.2504C30.3134 61.4512 30.07 60.6366 29.8726 59.8104L31.6136 59.0104L29.6259 57.5664L27.915 58.5534L28.6862 59.5674L27.5059 61.4694C28.522 61.7884 29.5557 62.0492 30.6017 62.2504V62.2504Z" stroke="#231300" stroke-width="0.75" stroke-miterlimit="10" stroke-linecap="round" stroke-linejoin="round"/>
</svg>
