<svg width="34" height="34" viewBox="0 0 34 34" fill="none" xmlns="http://www.w3.org/2000/svg">
    <path d="M33.915 16.9585C33.915 12.4611 32.1284 8.14786 28.9483 4.96771C25.7681 1.78756 21.4549 0.000976563 16.9575 0.000976562C12.4601 0.000976563 8.1469 1.78756 4.96675 4.96771C1.78661 8.14786 1.63279e-05 12.4611 1.63279e-05 16.9585C-0.00581506 21.1551 1.55052 25.2036 4.36593 28.3156V31.1013C4.36593 32.6468 5.31638 33.916 6.49093 33.916H17.7534C17.8723 33.916 17.9909 33.9031 18.1069 33.8773C22.3956 33.5865 26.4137 31.6778 29.3487 28.5373C32.2837 25.3968 33.9165 21.2589 33.9169 16.9604" fill="white"/>
    <path d="M6.10746 17.2337C6.08129 13.436 7.26035 9.72777 9.47503 6.64249C11.6897 3.55721 14.8259 1.25387 18.4325 0.0637518C17.9456 0.0212518 17.455 1.76237e-06 16.9585 1.76237e-06C14.7313 -0.00101382 12.5258 0.436912 10.4679 1.28875C8.41008 2.14058 6.5403 3.38962 4.96545 4.96447C3.3906 6.53932 2.14156 8.40911 1.28972 10.4669C0.437888 12.5248 -3.72595e-05 14.7303 0.000978325 16.9575C0.0852383 21.1497 1.60131 25.1869 4.29732 28.3983C4.30698 28.3983 4.29732 28.4157 4.29732 28.4176C3.69653 29.0976 0.580505 33.9214 4.33789 33.9214H8.68448C6.30834 33.8789 11.1244 29.851 9.20414 27.1716C7.08878 24.3016 6.00011 20.8036 6.11323 17.2401" fill="#EFF4F9"/>
</svg>
